<?xml version="1.0" standalone="no"?>
<!DOCTYPE svg PUBLIC "-//W3C//DTD SVG 20010904//EN"
 "http://www.w3.org/TR/2001/REC-SVG-20010904/DTD/svg10.dtd">
<svg version="1.0" xmlns="http://www.w3.org/2000/svg"
 width="472.000000pt" height="92.000000pt" viewBox="0 0 472.000000 92.000000"
 preserveAspectRatio="xMidYMid meet">

<g transform="translate(0.000000,92.000000) scale(0.100000,-0.100000)"
fill="#000000" stroke="none">
<path d="M617 870 c-133 -47 -227 -137 -272 -263 l-23 -62 -146 -3 -146 -3 0
-74 0 -75 143 0 144 0 16 -57 c19 -71 81 -168 133 -211 244 -203 615 -98 705
200 l21 68 69 0 69 0 0 -105 0 -105 35 0 34 0 3 126 3 127 113 -127 114 -126
45 0 45 0 -93 101 c-52 56 -108 118 -126 139 l-32 37 121 134 122 134 -40 3
c-38 3 -42 1 -114 -80 -41 -45 -94 -103 -117 -128 l-43 -45 0 128 0 127 -35 0
-35 0 0 -95 0 -96 -71 3 -71 3 -21 55 c-41 111 -125 201 -235 253 -58 27 -80
32 -162 34 -76 3 -107 -1 -153 -17z"/>
<path d="M2323 731 c-142 -36 -169 -215 -40 -271 23 -10 70 -26 104 -35 68
-19 99 -42 109 -82 15 -59 -62 -122 -133 -108 -39 7 -93 53 -93 79 0 12 -10
16 -35 16 -30 0 -35 -3 -35 -22 0 -39 38 -88 83 -108 50 -23 143 -26 190 -6
71 29 110 111 87 180 -17 51 -60 82 -157 112 -50 15 -96 36 -110 50 -62 62 5
155 101 140 42 -7 86 -39 86 -63 0 -9 13 -13 40 -13 27 0 40 4 40 14 0 22 -43
79 -75 97 -36 21 -118 31 -162 20z"/>
<path d="M1810 455 l0 -275 145 0 145 0 0 30 0 30 -110 0 -110 0 0 95 0 95
100 0 100 0 0 30 0 30 -100 0 -100 0 0 90 0 90 110 0 110 0 0 30 0 30 -145 0
-145 0 0 -275z"/>
<path d="M2680 455 l0 -275 35 0 35 0 0 125 0 125 140 0 140 0 0 -125 0 -125
35 0 35 0 0 275 0 275 -35 0 -35 0 0 -120 0 -120 -140 0 -140 0 0 120 0 120
-35 0 -35 0 0 -275z"/>
<path d="M3440 455 l0 -275 130 0 130 0 0 30 0 30 -100 0 -100 0 0 245 0 245
-30 0 -30 0 0 -275z"/>
<path d="M3782 511 l3 -219 31 -39 c43 -54 86 -73 163 -73 88 0 142 27 179 88
27 47 27 49 30 255 l3 207 -35 0 -35 0 -3 -207 c-3 -227 -6 -238 -63 -269 -47
-25 -138 -15 -171 18 -36 36 -43 81 -44 281 l0 177 -31 0 -30 0 3 -219z"/>
<path d="M4293 723 c2 -5 39 -65 81 -134 42 -69 76 -130 76 -134 0 -4 -34 -65
-77 -134 -42 -69 -78 -129 -80 -133 -2 -5 13 -8 34 -8 38 1 38 1 98 105 32 58
62 105 65 105 3 0 35 -47 70 -105 64 -104 65 -105 103 -105 21 0 36 3 34 8 -3
4 -41 66 -85 138 l-80 130 62 100 c34 54 72 116 85 137 l23 37 -39 0 c-39 0
-39 0 -98 -105 -33 -57 -63 -105 -67 -105 -3 0 -35 47 -70 105 -62 103 -63
105 -101 105 -21 0 -36 -3 -34 -7z"/>
</g>
</svg>
